<?xml version="1.0" encoding="UTF-8"?><svg xmlns="http://www.w3.org/2000/svg" xmlns:xlink="http://www.w3.org/1999/xlink" viewBox="0 0 1703.5 595.2"><defs><linearGradient id="linear-gradient" x1="1133.1" y1="577.1" x2="1583.7" y2="533.9" gradientUnits="userSpaceOnUse"><stop offset=".3" stop-color="#1b75bb"/><stop offset="1" stop-color="#652d90" stop-opacity="0"/></linearGradient></defs><g id="Object"><g id="Ship"><path d="M1288.5,63.1c7.7,1.6,15.4,3.2,23.2,4.5,7,1.1,16.5,2.2,23.4,2.9,15.5,1.6,31.7,1.7,47.1-.2,31-3.9,61.9-12.4,90.4-25.4-16.5,9.7-36.3,16.4-55.2,21.1,0,0-11.6,2.4-11.6,2.4,0,0-11.7,1.8-11.7,1.8-19.5,2.2-39.5,2.8-59.1,1.9-11.4-.8-24-2.9-35.1-5.6-3.8-1-7.6-2.1-11.4-3.2v-.2h0Z" fill="#d0d1d2" stroke-width="0"/><path d="M1590.1,199.5c-.7,19.4-2.7,38.6-4.9,57.8-2.6,32.2-4.3,64.3-8.8,96.3,0,0-.2,0-.2,0,1.2-32.3,5.2-64.2,8.4-96.4.9-12.9,1.5-25.8,3-38.6.7-6.4,1.4-12.8,2.3-19.2h.2Z" fill="#d0d1d2" stroke-width="0"/><polygon points="1198.8 472.6 1059.1 421 1059.1 424.7 1201.3 487.1 1198.8 472.6" fill="#f1a31f" stroke-width="0"/><polygon points="1188.6 477.8 1176.2 464.9 1598.2 464.9 1598.2 477.8 1188.6 477.8" fill="#af6628" stroke-width="0"/><polygon points="1478.6 454 1621 442.5 1621 448.3 1478.8 458.9 1478.6 454" fill="#59595c" stroke-width="0"/><polygon points="1300.4 454 1442.9 442.5 1442.9 448.3 1300.6 458.9 1300.4 454" fill="#59595c" stroke-width="0"/><polygon points="1463.1 74.9 1489.5 56 1489.5 59.8 1463.1 78.1 1463.1 74.9" fill="#59595c" stroke-width="0"/><polygon points="1278.5 84.4 1304.9 65.5 1304.9 69.2 1278.5 87.5 1278.5 84.4" fill="#59595c" stroke-width="0"/><polygon points="1291.7 464.9 1284.9 30.9 1288.3 27.7 1300.4 464.9 1291.7 464.9" fill="#59595c" stroke-width="0"/><polygon points="1470 464.9 1470 13.9 1473.1 10.1 1478.6 464.9 1470 464.9" fill="#59595c" stroke-width="0"/><polygon points="1295.5 287.7 1420.9 204 1420.9 209.6 1295.7 294.6 1295.5 287.7" fill="#59595c" stroke-width="0"/><polygon points="1474.3 271.9 1599.7 188.2 1599.7 193.9 1474.5 278.9 1474.3 271.9" fill="#59595c" stroke-width="0"/><path d="M1285.5,64.2c-97.3,78.8-171.1,187-206.6,307.2,0,0-7.2,25.9-7.2,25.9,0,0-6,26.2-6,26.2l5.5-26.3s6.7-26,6.7-26c34.3-120.8,108.5-229.8,207.5-306.9h0Z" fill="#d0d1d2" stroke-width="0"/><path d="M1270.7,87.5c-44.2,61.3-103.4,162.2-105.8,246.2-27.4,10.7-53.6,26.5-74.7,47,41.1-112.2,119.7-228,180.5-293.1Z" fill="#f3ca91" stroke-width="0"/><path d="M1165.7,396.4c17.2-57.7,57.6-113.8,105.6-150.1-66.6,47.7-143.2,114.4-198.1,175.2,25.3-13.7,63.7-26.2,92.4-25.2Z" fill="#f3ca91" stroke-width="0"/><path d="M1214.4,410.7c11.9-51.9,32.7-102.3,62.9-146.1-55,50.4-113.5,111.4-159.8,170,28.1-9.5,67.3-21.2,96.8-23.9Z" fill="#f3ca91" stroke-width="0"/><path d="M1192.4,459.8l90.6-169.3c-8.8,33.6-14.7,68-15,102.7-.1,10.1.2,20.4,2.9,30.1,2.8,9.7,8.2,19,16.7,24.6-16.1-4-32.6-6.2-49.1-4.7-16.5,1.5-32.7,6.8-46.1,16.6Z" fill="#f3ca91" stroke-width="0"/><path d="M1588.1,202.1c-13.2,42.7-16.2,71.3-15.7,98.9.9,49.2,11.1,91.9,32.4,136.3-38.5-9.6-77,.7-113.8,15.6-32.8-49.4-43.6-107.5-13.5-180.1l110.6-70.7Z" fill="#f3ca91" stroke-width="0"/><path d="M1492.5,63.6c6.6,45.2,51.4,96,88.9,122.1-44.4,13.2-77.3,34.6-92.5,72.4-27.8-15.1-53.2-132.5-26.8-178.7,7.4.8,15.4-2.3,21.5-6.6,3.3-2.5,5.7-6.6,9-9.1Z" fill="#f3ca91" stroke-width="0"/><path id="flag1" d="M1673.4,224.1c-2,8.9-4,17.7-6,26.6-1,4.5-2,9.2-1.7,13.8.4,4.7,2.4,11,6.1,13-8.9,5.1-19.4,5-29.2,3.3-9.8-1.7-19.5-4.7-29.4-5.1-9.9-.4-19.9,1.1-26.9,9.3,12.9-23,15.3-53.4,6.1-78.7,7.7-5.7,18.2-3.1,27-.5,8.9,2.6,17.1,7.5,25.6,11.2,8.6,3.7,19.5,9.8,28.3,7.1Z" fill="#f05a29" stroke-width="0"/><path d="M1406.3,219.8c-13.2,24.3-16.3,52.9-15.7,80.6.9,49.2,11.1,91.9,32.4,136.3-38.5-9.6-77,.7-113.8,15.6-23.4-50-28.3-108.5-13.5-161.7l110.6-70.7Z" fill="#f3ca91" stroke-width="0"/><path id="flag2-2" d="M1537,43.3c-20.9-25.5-47.2-36.2-62.1-32.5,3.1,4.6,11.5,37.8-1.7,58.8,19.9-18.4,42-28.3,63.8-26.3Z" fill="#f05a2a" stroke-width="0"/><path id="flag2-1" d="M1288.5,30.8c1.2,1.1,2.4,2.2,3.7,3.3,5.1,8.9,4.9,22.8-.3,31.5-.6,1.7-1.7,3-3,3.7,10,3.5,19.3-19.5,60.8-15.2-9.5-7.8-18.5-17-28.8-22.2-10.4-5.2-21.6-4.3-32.4-1.1Z" fill="#f05a2a" stroke-width="0"/><path d="M1277.1,88.9c12.6,2.5,26.3-5.5,30.4-17.7,13.3,55.8,49.3,104.9,99.3,133.2-33.4,7.2-64.5,24.2-89,47.9-7.7,7.4-15.1,16.5-15.2,27.2-31.1-58.8-41.2-126-25.5-190.7Z" fill="#f3ca91" stroke-width="0"/><path d="M1362,543.2c52.5-1.4,104.6-8.8,156.5-16.5,13.6-2,27.8-4.1,37-14.7,10.3-11.9,22.1-22.3,33.5-33.1-96.6,1.8-193.2-1.3-289.7-2.2-18.3-.2-36.7-.3-55-.2s-18.3,0-27.4.2c-5.6,0-23.8-4.1-21.5,6.7s3.7,4.5,4.7,6.1c2,3.2,3.4,7.2,4.5,10.8,2.1,6.6,1.2,13.9,3,20.3,1.9,6.6,7.3,6.4,13.9,8.2,15.2,4.1,30.6,7.2,46.2,9.5,31.2,4.6,62.8,5.9,94.3,5Z" fill="#a87c4f" stroke-width="0"/></g></g><g id="Background"><g id="bird"><path d="M44.1,109.1c2.3-11.3,18.4-18.5,26.2-8.1,3.7,5.1,5.6,10.6,8,16.4,0,0-4.3-1.1-4.3-1.1,4.4-11.1,19-19.3,29.8-11.5,5.8,4.1,8.8,11.8,7.6,18.4,0,0-1,.2-1,.2-10.2-13.7-19.3-14-32.6-4.2,0,0-4.8,3.9-4.8,3.9.3-3,1-7.3,0-10.2-2.7-10.2-15.4-8.9-23.1-5.4-1.6.7-3.2,1.5-5.1,2.3l-.8-.6h0Z" fill="#808083" stroke-width="0"/></g><g id="wave"><path d="M1121.3,550.6c13.9,18.3,31.8,34.3,54.4,40.8,21.7,6.2,44.6,1.4,61.9-12.9s15.6-18.1,17.6-29.5h-24.1c4.4,11.2,11,21.3,20.3,29.1s19.8,13.6,31.5,16.4c23.5,5.5,47.7-1.7,65.3-17.9,9.6-8.8,16.8-20.4,20.4-32.9-7.6,1-15.2,2-22.8,3,10.7,20.4,30.8,35.7,53,41.3,22.6,5.6,47.2,1,66.2-12.5,10.8-7.7,20.1-17.6,26.1-29.5-7.8-2.1-15.5-4.2-23.3-6.3-.4,21.2,16.5,37.3,35.6,43.3,20.9,6.5,42.6-.7,59.7-13.2s19.2-15.9,28-24.7c4.6-4.6,5-13.1,0-17.7s-12.7-4.9-17.7,0-8,8-12.2,11.8-4.4,3.9-6.7,5.8-2.1,1.7-3.1,2.5,2.4-1.8.2-.2-1.2.9-1.8,1.3c-4.5,3.2-9.3,6.1-14.3,8.4s-.2.1.7-.3c-.6.3-1.3.5-2,.8-1.3.5-2.7,1-4.1,1.4-2.6.8-5.2,1.4-7.9,1.7l3.3-.4c-3.7.4-7.3.4-11,0l3.3.4c-3.9-.5-7.6-1.6-11.3-2.9s2.9,1.4.8.4-.7-.3-1-.5c-.9-.4-1.7-.9-2.5-1.3s-1.6-1-2.4-1.5-.9-.6-1.4-1-1.9-1.4,0,0-.6-.6-1.1-1c-.7-.6-1.3-1.3-2-1.9s-2.4-2.9-1-1-.4-.6-.7-1.2c-.5-.8-.9-1.5-1.3-2.3s-.6-1.2-.6-1.2c.1,0,1.3,3.4.5,1.3s-1.1-3.6-1.4-5.5l.4,3.3c-.2-1.5-.3-3-.2-4.5,0-5.3-3.9-10.9-9.2-12.1s-11.6.7-14.1,5.7-2.7,4.9-4.2,7.2-.9,1.3-1.3,1.9-2.1,2.3.3-.4c-.9,1-1.7,2.1-2.6,3.1-1.8,2-3.7,3.9-5.7,5.7s-2,1.7-3.1,2.6c-1.9,1.5,2.2-1.6.4-.3s-1.3.9-1.9,1.4c-2.3,1.6-4.7,3-7.1,4.4s-2.4,1.2-3.6,1.8-1.2.5-1.8.8c3.3-1.7,1.4-.6.5-.2-5.2,2-10.6,3.4-16.1,4.2l3.3-.4c-5.8.7-11.6.7-17.3,0l3.3.4c-5.3-.8-10.5-2.1-15.5-4-.4-.2-.8-.3-1.2-.5l1.8.7c-.6-.2-1.2-.5-1.8-.8-1.2-.6-2.4-1.2-3.6-1.8-2.5-1.3-4.8-2.8-7.1-4.3s-1.1-.8-1.6-1.2c-2.2-1.6,1.4,1.1.4.3s-2.1-1.7-3.1-2.6c-2-1.8-3.9-3.7-5.7-5.6s-1.7-2-2.6-3.1,1.9,2.6.3.4-.8-1.1-1.2-1.6c-1.6-2.3-3-4.7-4.3-7.2-2.3-4.4-7.8-6.6-12.5-6s-9,4.1-10.4,9-.9,2.9-1.4,4.3-.5,1.2-.7,1.8c1.4-3.6.6-1.5.2-.6-1.2,2.5-2.5,4.9-4.1,7.3s-1,1.4-1.5,2.1-2,2.5.4-.5c-.8,1-1.6,2-2.5,3-1.9,2.2-4,4.2-6.2,6.1s-1.1,1.1-1.7,1.4l1.5-1.2c-.3.3-.7.5-1,.8-1.1.8-2.3,1.6-3.5,2.4-2.4,1.5-4.8,2.8-7.3,4s-3.4,1,.3-.1c-.6.2-1.2.5-1.8.7-1.3.5-2.6.9-4,1.3-2.8.8-5.6,1.4-8.5,1.8l3.3-.4c-4.8.6-9.5.6-14.3,0l3.3.4c-5-.7-10.6-1.7-15.1-4l1.8.7c-.4-.2-.8-.4-1.2-.5-.6-.3-1.2-.6-1.8-.8-1.1-.5-2.1-1.1-3.2-1.7-2.3-1.3-4.4-2.8-6.6-4.3s2.3,1.9.7.5-1-.8-1.5-1.3c-1-.9-2-1.7-2.9-2.7-1.9-1.8-3.5-3.8-5.2-5.8,2.8,3.2-.1-.3-.7-1.2s-1.4-2.2-2.1-3.3-1.2-2.1-1.7-3.2-.6-1.2-.8-1.8c-1.2-2.7,1,2.5.1.3s-2.2-4.7-4.5-6.5-4.8-2.8-7.6-2.7c-5.1.2-11.1,3.7-12.1,9.2s-1.1,4.7-1.9,6.9,1.3-2.8.3-.8-.4.9-.6,1.3c-.5,1-1,1.9-1.6,2.8s-1.4,1.9-2,2.9c1.9-3.1,1.2-1.5.5-.7s-.8.9-1.2,1.3c-1.5,1.7-3.2,3.3-5,4.7s.5-.2.9-.7c-.4.4-1,.7-1.5,1.1-1,.7-2,1.3-3.1,2s-2.1,1.2-3.2,1.8-.9.5-1.4.7-2.6,1.2-.5.2.3-.1-.2,0-1.2.4-1.7.6c-1.2.4-2.3.8-3.5,1.1-2.4.6-4.8,1.1-7.2,1.4l3.3-.4c-4.6.6-9.1.5-13.7,0l3.3.4c-5.3-.8-11.1-2-16-4.4l1.7.7c-.4-.2-.8-.4-1.3-.6-.6-.3-1.3-.6-1.9-.9-1.1-.6-2.3-1.2-3.4-1.8-2.4-1.4-4.8-2.8-7.1-4.4s-2-1.6-3.1-2.3c3,1.8,1.1.8.3.2s-1.1-.9-1.6-1.3c-2.2-1.8-4.3-3.7-6.3-5.7s-4-4.1-5.8-6.2-1.7-2-2.5-3-.9-1.1-1.3-1.6c-1.9-2.4,1.5,2,0,0s-4.1-4.8-7.5-5.7-7-.5-9.6,1.3-5,4.3-5.7,7.5-.7,7,1.3,9.6h0Z" fill="url(#linear-gradient)" stroke-width="0"/></g></g></svg>