<?xml version="1.0" encoding="UTF-8"?><svg id="button" xmlns="http://www.w3.org/2000/svg" viewBox="0 0 154 136"><ellipse id="base" cx="81.5" cy="71" rx="59" ry="53.5" fill="#39b54a" stroke-width="0"/><path id="icon" d="M112.7,88.7c-.9-1.9-4.2-.2-7.5-2.8-4.4-3.4-2.7-9.3-5.5-10.5-2.8-1.2-9.3,2.3-11.9,8.2l-18.7-19.1c5.3-2.4,8.4-8.2,7.9-12.2-.8-7.1-13-13.3-13-13.3,0,0-13,6.2-13,13.3s.7,4.9,1.9,6.9c2,6.1,5.6,14,11.8,21.8,10.5,13.1,22.9,18.8,28.8,21v-1.6c1.8,1,3.9,1.6,6.2,1.6,8.7,0,14.6-10.2,13-13.3Z" fill="none" stroke="#fff" stroke-miterlimit="10" stroke-width="3"/></svg>